<?xml version="1.0" encoding="utf-8"?>
<!-- Generator: Adobe Illustrator 15.0.2, SVG Export Plug-In . SVG Version: 6.00 Build 0)  -->
<!DOCTYPE svg PUBLIC "-//W3C//DTD SVG 1.1//EN" "http://www.w3.org/Graphics/SVG/1.1/DTD/svg11.dtd">
<svg version="1.1" id="Ñëîé_1" xmlns="http://www.w3.org/2000/svg" xmlns:xlink="http://www.w3.org/1999/xlink" x="0px" y="0px"
	 width="1250px" height="1250px" viewBox="0 0 1250 1250" enable-background="new 0 0 1250 1250" xml:space="preserve">
<path fill="#B2B2B2" d="M1012.445,509.419c0-0.006,0.004-0.012,0.002-0.02c0-0.008-0.006-0.016-0.006-0.024
	c-0.008-0.055-0.02-0.105-0.043-0.153c-0.006-0.013-0.012-0.023-0.018-0.033c-0.027-0.048-0.055-0.089-0.094-0.125
	c-0.01-0.011-0.02-0.019-0.029-0.026c-0.039-0.033-0.08-0.061-0.129-0.082c-0.014-0.006-0.027-0.011-0.045-0.015
	c-0.027-0.01-0.055-0.026-0.086-0.032l-69.26-10.816c-2.709-69.195-30-132.071-73.404-180.129l4.793-13.292l5.854-16.273
	c0.146-0.413,0.043-0.878-0.264-1.185c-0.309-0.309-0.779-0.419-1.193-0.271l-16.266,5.864l-13.266,4.778
	c-48.104-43.577-111.113-70.981-180.473-73.695l-10.817-69.271c-0.001-0.008-0.006-0.015-0.009-0.023
	c-0.01-0.054-0.027-0.105-0.054-0.152c-0.007-0.012-0.015-0.022-0.021-0.034c-0.029-0.042-0.061-0.081-0.101-0.114
	c-0.012-0.01-0.024-0.02-0.039-0.029c-0.038-0.027-0.079-0.05-0.124-0.066c-0.02-0.006-0.038-0.01-0.057-0.016
	c-0.027-0.006-0.053-0.02-0.082-0.022c-0.021-0.001-0.041,0.006-0.061,0.007c-0.008,0.001-0.016-0.003-0.023-0.002
	c-0.012,0.001-0.021,0.008-0.034,0.009c-0.046,0.007-0.09,0.018-0.132,0.036c-0.022,0.009-0.041,0.021-0.062,0.033
	c-0.037,0.022-0.069,0.045-0.101,0.075c-0.016,0.015-0.028,0.03-0.041,0.046c-0.029,0.036-0.054,0.073-0.074,0.117
	c-0.007,0.016-0.012,0.031-0.018,0.047c-0.01,0.029-0.025,0.055-0.031,0.086l-10.816,69.271
	c-69.606,2.719-132.824,30.306-180.996,74.152l-11.927-4.301l-16.27-5.859c-0.414-0.148-0.88-0.044-1.188,0.269
	c-0.311,0.309-0.413,0.774-0.266,1.185l5.859,16.274l4.308,11.959c-43.613,48.11-71.042,111.146-73.757,180.534l-69.239,10.813
	c-0.009,0.001-0.016,0.006-0.025,0.008c-0.053,0.013-0.102,0.028-0.148,0.054c-0.012,0.007-0.023,0.015-0.035,0.022
	c-0.043,0.029-0.082,0.062-0.115,0.101c-0.009,0.011-0.017,0.021-0.024,0.032c-0.03,0.041-0.053,0.086-0.071,0.134
	c-0.005,0.016-0.008,0.03-0.012,0.047c-0.007,0.03-0.022,0.056-0.024,0.088c-0.002,0.022,0.006,0.043,0.007,0.063
	c0,0.008-0.002,0.014-0.002,0.02c0.001,0.01,0.006,0.019,0.008,0.028c0.006,0.052,0.019,0.103,0.041,0.149
	c0.006,0.014,0.013,0.024,0.02,0.038c0.025,0.044,0.054,0.084,0.091,0.122c0.01,0.009,0.02,0.018,0.031,0.026
	c0.04,0.032,0.081,0.06,0.128,0.081c0.014,0.006,0.029,0.01,0.044,0.016c0.029,0.011,0.056,0.026,0.087,0.03l69.238,10.813
	c2.69,69.064,29.872,131.834,73.12,179.864l-4.636,12.863l-5.856,16.276c-0.152,0.405-0.043,0.87,0.265,1.182
	c0.307,0.307,0.774,0.412,1.188,0.269l16.269-5.861l12.766-4.601c48.19,43.917,111.463,71.553,181.135,74.268l10.811,69.221
	c0.001,0.009,0.007,0.016,0.008,0.023c0.012,0.052,0.026,0.098,0.049,0.144c0.008,0.012,0.016,0.023,0.023,0.035
	c0.026,0.041,0.056,0.078,0.092,0.112c0.012,0.009,0.022,0.016,0.033,0.024c0.039,0.029,0.08,0.056,0.126,0.074
	c0.013,0.005,0.027,0.007,0.04,0.011c0.037,0.012,0.074,0.028,0.114,0.031c0.015,0.001,0.028,0.002,0.042,0.002
	s0.025-0.006,0.039-0.007h0.002c0.002,0,0.004-0.001,0.006-0.001c0.065-0.006,0.126-0.023,0.184-0.051
	c0.007-0.003,0.012-0.007,0.019-0.011c0.051-0.027,0.096-0.061,0.136-0.102c0.006-0.007,0.012-0.015,0.018-0.021
	c0.036-0.041,0.065-0.087,0.088-0.138c0.004-0.012,0.007-0.021,0.01-0.031c0.012-0.031,0.028-0.061,0.033-0.095l10.811-69.223
	c69.15-2.703,131.988-29.955,180.037-73.305l11.795,4.246l16.268,5.862c0.41,0.148,0.877,0.042,1.188-0.27
	c0.313-0.306,0.414-0.776,0.264-1.187l-5.859-16.27l-4.207-11.686c44.189-48.256,72.016-111.729,74.738-181.653l69.258-10.815
	c0.008-0.002,0.016-0.008,0.023-0.01c0.055-0.01,0.104-0.027,0.15-0.053c0.012-0.007,0.021-0.014,0.033-0.021
	c0.045-0.028,0.082-0.061,0.115-0.102c0.01-0.01,0.016-0.021,0.023-0.032c0.031-0.042,0.055-0.085,0.072-0.135
	c0.006-0.014,0.01-0.029,0.014-0.044c0.006-0.03,0.021-0.058,0.023-0.09C1012.455,509.461,1012.447,509.441,1012.445,509.419z
	 M863.031,294.943l13.996-5.042l-5.045,13.997l-4.383,12.17c-5.342-5.81-10.924-11.396-16.727-16.747L863.031,294.943z
	 M854.539,312.092c47.789,47.8,78.299,112.803,81.467,184.95l-36.082-5.634c-3.41-45.604-19.555-88.731-47.219-125.678l-0.271-0.363
	l-0.352,0.287c-0.105,0.085-0.223,0.188-0.336,0.292l-0.291,0.266l0.236,0.316c27.434,36.654,43.473,79.425,46.916,124.675
	l-40.846-6.378c-5.424-44.654-25.408-84.812-55.07-115.589l12.738-17.271l0.066-0.066l-0.01-0.011l0.049-0.064
	c0.166-0.228,0.131-0.546-0.084-0.729c-0.191-0.165-0.463-0.164-0.662-0.021l-0.02-0.022l-17.488,12.777
	c-30.764-29.607-70.887-49.555-115.494-54.975l-6.068-38.865c45.404,3.378,88.381,19.2,125.254,46.279l0.328,0.241l0.857-0.981
	l-0.383-0.281c-37.178-27.292-80.5-43.214-126.262-46.567l-5.941-38.049C741.727,233.783,806.738,264.296,854.539,312.092z
	 M770.893,412.351l6.334-8.585c18.227,20.697,31.189,46.131,36.791,74.227l-11.008-1.719
	C797.572,452.258,786.354,430.44,770.893,412.351z M801.037,475.965l-69.102-10.792l37.824-51.284
	C784.727,431.509,795.641,452.677,801.037,475.965z M779.523,400.651l20.771-28.164c28.574,29.855,47.898,68.608,53.379,111.698
	l-35.684-5.572C812.355,449.031,798.766,422.275,779.523,400.651z M690.338,363.601l-1.719-11.005
	c27.984,5.578,53.326,18.455,73.979,36.568l-8.629,6.305C735.936,380.139,714.223,369.011,690.338,363.601z M752.422,396.599
	l-51.102,37.333l-10.674-68.354C713.803,370.942,734.861,381.76,752.422,396.599z M687.998,348.616l-5.572-35.674
	c43.037,5.475,81.748,24.758,111.59,53.271l-28.291,20.667C744.143,367.748,717.473,354.233,687.998,348.616z M701.867,434.912
	l107.816-78.773l-149.83,149.832L701.867,434.912z M443.176,304.835l-5.044-13.995l13.995,5.041l10.832,3.902
	c-5.497,5.093-10.793,10.397-15.875,15.905L443.176,304.835z M459.785,312.092c47.808-47.8,112.825-78.314,184.986-81.465
	l-5.942,38.056c-45.979,3.384-89.482,19.456-126.772,47.006l-0.362,0.268l0.353,0.444l0.188,0.238l0.262,0.329l0.338-0.25
	c36.995-27.333,80.149-43.307,125.788-46.723l-6.067,38.856c-44.648,5.425-84.803,25.406-115.578,55.06l-17.271-12.737l-0.069-0.069
	l-0.011,0.01l-0.065-0.048c-0.228-0.168-0.545-0.131-0.729,0.082c-0.165,0.192-0.164,0.464-0.02,0.663l-0.023,0.02l12.779,17.491
	c-29.615,30.766-49.566,70.892-54.982,115.505l-40.747,6.363c3.431-45.052,19.376-87.703,46.642-124.309l0.24-0.323l-0.302-0.264
	c-0.066-0.057-0.129-0.104-0.193-0.151c-0.047-0.034-0.093-0.068-0.142-0.111l-0.355-0.312l-0.282,0.379
	c-27.479,36.871-43.521,79.859-46.925,125.296l-36.206,5.654C381.479,424.9,411.989,359.894,459.785,312.092z M536.906,404.002
	l6.305,8.632c-15.336,18.035-26.469,39.752-31.88,63.645l-11.006,1.719C505.903,450.007,518.786,424.657,536.906,404.002z
	 M496.349,478.619l-35.676,5.571c5.473-43.042,24.759-81.759,53.282-111.601l20.667,28.287
	C515.483,422.462,501.965,449.137,496.349,478.619z M544.342,414.18l37.344,51.113l-68.376,10.678
	C518.675,452.808,529.498,431.742,544.342,414.18z M503.875,356.914l149.831,149.828l-71.059-42.01L503.875,356.914z
	 M561.633,396.844c17.617-14.964,38.78-25.872,62.064-31.266l-10.788,69.081L561.633,396.844z M560.095,395.709l-8.588-6.333
	c20.697-18.223,46.126-31.179,74.217-36.779l-1.719,11.005C599.997,369.041,578.183,380.256,560.095,395.709z M548.394,387.08
	l-28.163-20.769c29.854-28.566,68.599-47.887,111.686-53.369l-5.571,35.675C596.769,354.254,570.016,367.843,548.394,387.08z
	 M451.167,723.244l-13.996,5.035l5.039-13.995l4.226-11.729c5.238,5.715,10.712,11.21,16.396,16.482L451.167,723.244z
	 M459.785,706.85c-47.808-47.818-78.319-112.841-81.47-185.011l36.167,5.647c3.277,45.167,19.054,87.979,46.138,124.742l0.236,0.32
	l0.341-0.207c0.135-0.081,0.268-0.191,0.4-0.312l0.289-0.265l-0.231-0.315c-26.865-36.501-42.542-78.963-45.854-123.759l40.787,6.37
	c5.425,44.648,25.405,84.802,55.06,115.575l-12.735,17.268l-0.067,0.066l0.009,0.012l-0.047,0.064
	c-0.168,0.228-0.132,0.545,0.082,0.729c0.102,0.087,0.227,0.131,0.352,0.131c0.111,0,0.218-0.044,0.311-0.111l0.02,0.023
	l17.485-12.775c30.766,29.613,70.891,49.563,115.503,54.98l6.159,39.439c-46.158-3.434-89.739-19.694-126.998-47.562l-0.35-0.262
	l-0.26,0.352c-0.039,0.053-0.084,0.1-0.131,0.149l-0.13,0.142l0.001,0.006l-0.303,0.347l0.373,0.279
	c37.567,28.093,81.499,44.458,128.002,47.863l5.861,37.537C572.619,785.167,507.596,754.649,459.785,706.85z M543.443,606.523
	l-6.331,8.583c-18.227-20.691-31.184-46.121-36.786-74.215l11.005,1.719C516.771,566.621,527.987,588.436,543.443,606.523z
	 M513.311,542.919l69.083,10.789l-37.814,51.273C529.615,587.365,518.707,566.202,513.311,542.919z M534.816,618.222l-20.77,28.162
	c-28.57-29.852-47.89-68.599-53.372-111.685l35.676,5.571C501.988,569.848,515.578,596.599,534.816,618.222z M624.011,655.281
	l1.719,11.005c-27.988-5.58-53.335-18.464-73.991-36.582l8.625-6.303C578.399,638.736,600.117,649.87,624.011,655.281z
	 M561.913,622.271l51.111-37.344l10.678,68.376C600.539,647.937,579.475,637.114,561.913,622.271z M626.35,670.262l5.572,35.679
	c-43.044-5.476-81.757-24.765-111.599-53.283l28.287-20.667C570.196,651.125,596.87,664.643,626.35,670.262z M612.472,583.957
	l-107.82,78.774l149.834-149.836L612.472,583.957z M870.074,714.893l5.039,13.999l-13.994-5.046l-10.664-3.839
	c5.471-5.025,10.74-10.267,15.807-15.7L870.074,714.893z M854.539,706.85c-47.801,47.794-112.814,78.31-184.971,81.464l5.861-37.526
	c45.234-3.302,88.164-18.911,125.102-45.654l0.383-0.278l-0.307-0.358l-0.08-0.091c-0.074-0.089-0.146-0.176-0.225-0.258
	l-0.262-0.278l-0.311,0.224c-36.619,26.536-79.197,42.049-124.096,45.379l6.158-39.448c44.654-5.424,84.811-25.408,115.588-55.067
	l17.258,12.729l0.066,0.066l0.01-0.009l0.064,0.047c0.096,0.07,0.209,0.105,0.32,0.105c0.008,0,0.016,0,0.02,0
	c0.299,0,0.541-0.241,0.541-0.54c0-0.124-0.051-0.229-0.121-0.319l0.014-0.011l-12.768-17.475
	c29.609-30.765,49.557-70.885,54.977-115.494l40.887-6.385c-3.381,45.968-19.756,89.383-47.887,126.491l-0.252,0.331l0.99,0.828
	l0.275-0.364c28.354-37.388,44.834-81.146,48.186-127.491l36.049-5.629C932.854,594.008,902.344,659.03,854.539,706.85z
	 M777.445,614.863l-6.303-8.626c15.33-18.033,26.459-39.745,31.869-63.632l11.006-1.719
	C808.438,568.871,795.555,594.215,777.445,614.863z M817.99,540.267l35.684-5.572c-5.475,43.038-24.756,81.75-53.275,111.589
	l-20.668-28.29C798.861,596.409,812.375,569.741,817.99,540.267z M770.014,604.689l-37.334-51.1l68.357-10.676
	C795.672,566.07,784.852,587.13,770.014,604.689z M810.463,661.941L660.632,512.113l71.056,42.012L810.463,661.941z
	 M752.725,622.023c-17.619,14.969-38.785,25.881-62.072,31.277l10.791-69.099L752.725,622.023z M754.266,623.16l8.582,6.329
	c-20.695,18.229-46.127,31.192-74.223,36.796l1.719-11.007C714.359,649.839,736.176,638.619,754.266,623.16z M765.963,631.786
	l28.164,20.771c-29.854,28.571-68.605,47.898-111.695,53.381l5.572-35.679C717.584,664.621,744.34,651.028,765.963,631.786z
	 M657.174,509.442l43.379,73.474l-11.031,70.635c0,0-0.002,0.001-0.004,0.001l-0.309,1.974c0.002-0.001,0.004-0.001,0.004-0.001
	l-1.715,10.977c0,0-0.002,0-0.004,0.001l-0.621,3.974c0.002-0.001,0.004-0.001,0.004-0.001l-5.557,35.592
	c-0.002,0-0.004,0-0.006,0.001l-0.639,4.084c0.002-0.001,0.004-0.001,0.006-0.001l-6.152,39.396c-0.002,0-0.004,0-0.008,0.001
	l-0.205,1.313c0.004,0,0.006,0,0.01,0l-5.855,37.494c-0.004,0-0.008,0-0.01,0l-1.053,6.732c0.004,0,0.008,0,0.011,0l-9.704,62.146
	v-0.086l-0.541,3.457V509.442l-73.502,43.373l-70.611-11.026c0-0.001,0-0.003-0.001-0.004l-1.975-0.309
	c0.001,0.001,0.001,0.003,0.001,0.004l-10.975-1.715c0-0.001,0-0.003-0.001-0.004l-3.977-0.62c0,0.001,0.001,0.003,0.001,0.004
	l-35.589-5.559c0-0.002,0-0.004-0.001-0.006l-4.085-0.638c0.001,0.002,0.001,0.004,0.001,0.006l-40.736-6.361
	c0-0.002,0-0.006,0-0.008l-1.319-0.206c0.001,0.003,0.001,0.005,0.001,0.008l-36.134-5.643c0-0.003,0-0.006,0-0.01l-6.729-1.051
	c0,0.003,0,0.007,0,0.01l-62.161-9.707h0.081l-3.453-0.539H657.174L613.8,435.947l11.027-70.619c0.001,0,0.003,0,0.004-0.001
	l0.309-1.972c-0.002,0-0.003,0-0.004,0.001l1.714-10.974c0.001-0.001,0.003-0.001,0.005-0.001l0.622-3.98
	c-0.002,0-0.004,0-0.006,0.001l5.559-35.588c0.002,0,0.004,0,0.006,0l0.639-4.089c-0.003,0-0.005,0-0.007,0l6.061-38.805
	c0.002,0,0.005,0,0.009,0l0.203-1.314c-0.002,0-0.004,0.001-0.008,0.001l5.938-38.021c0.004,0,0.008,0,0.011,0l1.053-6.738
	c-0.004,0-0.008,0-0.011,0l9.713-62.195v0.085l0.539-3.457V509.442l73.467-43.379l70.646,11.033c0,0.001,0,0.002,0,0.003
	l1.971,0.308c0-0.001-0.002-0.002-0.002-0.003l10.977,1.714c0,0.002,0.002,0.003,0.002,0.004l3.975,0.621
	c0-0.001-0.002-0.003-0.002-0.004l35.594,5.559c0,0.002,0,0.004,0.002,0.006l4.086,0.639c0-0.002,0-0.004,0-0.006l40.795,6.371
	c0,0.002,0,0.005,0,0.008L900,492.52c0-0.003,0-0.006,0-0.008l36.047,5.629c0,0.002,0,0.006,0,0.009l6.732,1.052
	c0-0.003,0-0.007,0-0.01l62.186,9.711h-0.084l3.453,0.54H657.174z"/>
</svg>
