<?xml version="1.0" encoding="utf-8"?>
<!-- Generator: Adobe Illustrator 15.0.2, SVG Export Plug-In . SVG Version: 6.00 Build 0)  -->
<!DOCTYPE svg PUBLIC "-//W3C//DTD SVG 1.1//EN" "http://www.w3.org/Graphics/SVG/1.1/DTD/svg11.dtd">
<svg version="1.1" id="Ebene_1" xmlns="http://www.w3.org/2000/svg" xmlns:xlink="http://www.w3.org/1999/xlink" x="0px" y="0px"
	 width="100px" height="100px" viewBox="0 0 100 100" enable-background="new 0 0 100 100" xml:space="preserve">
<g>
	<path fill="#FFFFFF" stroke="#000000" stroke-miterlimit="10" d="M62.745,52.872c-0.486-0.483-1.672-0.272-2.373,0.428
		c-0.603,0.601-1.722,1.722-2.804,2.804c-1.08,1.078-2.197,2.196-2.801,2.801c-0.701,0.699-0.912,1.888-0.426,2.376
		c2.207,2.206,6.42,5.016,10.436,9.032c10.168,10.17,22.869,24.271,26.555,27.957c0.486,0.486,1.675,0.271,2.373-0.431
		c0.521-0.521,1.624-1.621,2.805-2.799c1.178-1.181,2.278-2.282,2.801-2.804c0.699-0.698,0.914-1.887,0.426-2.372
		C96.05,86.18,81.948,73.477,71.779,63.309C67.766,59.294,64.955,55.082,62.745,52.872z"/>
	<path fill="#FFFFFF" stroke="#000000" stroke-miterlimit="10" d="M54.477,10.816c-12.461-12.463-32.667-12.463-45.128,0
		c-12.463,12.462-12.463,32.667,0,45.132c12.462,12.46,32.667,12.46,45.128,0C66.941,43.482,66.941,23.278,54.477,10.816z
		 M48.534,50.003c-9.18,9.181-24.063,9.181-33.243,0c-9.179-9.18-9.179-24.063,0-33.243c9.18-9.179,24.063-9.18,33.243,0
		C57.714,25.941,57.714,40.823,48.534,50.003z"/>
</g>
</svg>
